<?xml version="1.0" standalone="no"?>
<!DOCTYPE svg PUBLIC "-//W3C//DTD SVG 20010904//EN"
 "http://www.w3.org/TR/2001/REC-SVG-20010904/DTD/svg10.dtd">
<svg version="1.0" xmlns="http://www.w3.org/2000/svg"
 width="296.000000pt" height="296.000000pt" viewBox="0 0 296.000000 296.000000"
 preserveAspectRatio="xMidYMid meet">
<metadata>
Created by potrace 1.11, written by Peter Selinger 2001-2013
</metadata>
<g transform="translate(0.000000,296.000000) scale(0.100000,-0.100000)"
fill="#000000" stroke="none">
<path d="M1310 2944 c-133 -15 -180 -26 -310 -71 -210 -71 -386 -181 -544
-336 -152 -151 -230 -259 -311 -430 -41 -87 -98 -256 -109 -322 -3 -16 -10
-59 -16 -95 -6 -36 -12 -119 -14 -185 -8 -449 193 -882 541 -1167 187 -153
450 -275 668 -309 33 -5 76 -12 95 -15 86 -13 394 -5 420 11 4 3 25 7 46 10
70 11 237 66 333 111 286 134 529 369 685 664 147 278 198 662 130 974 -40
182 -119 367 -225 527 -75 112 -251 293 -359 368 -169 118 -382 211 -565 247
-11 2 -31 6 -45 9 -101 20 -288 24 -420 9z"/>
</g>
</svg>
